<?xml version="1.0" encoding="utf-8"?>
<!-- Generator: Adobe Illustrator 21.0.0, SVG Export Plug-In . SVG Version: 6.00 Build 0)  -->
<svg version="1.1" id="Layer_1" xmlns="http://www.w3.org/2000/svg" xmlns:xlink="http://www.w3.org/1999/xlink" x="0px" y="0px"
	 viewBox="0 0 746.4 485.9" style="enable-background:new 0 0 746.4 485.9;" xml:space="preserve">
<style type="text/css">
	.st0{clip-path:url(#SVGID_2_);}
	.st1{fill:#DFE221;}
	.st2{fill:#0F385A;}
</style>
<title>LOGO DETRAC depan-01</title>
<g id="Layer_2">
	<g id="Layer_1-2">
		<g id="Layer_1-3">
			<g>
				<defs>
					<circle id="SVGID_1_" cx="374.8" cy="244.3" r="210.2"/>
				</defs>
				<clipPath id="SVGID_2_">
					<use xlink:href="#SVGID_1_"  style="overflow:visible;"/>
				</clipPath>
				<g class="st0">
					<circle class="st1" cx="357.4" cy="246.1" r="197"/>
					<path class="st2" d="M421.4,267.2l123-13.2c1.2-54.3-25.2-129.6-101.3-171.3c-36.3-20.1-78.3-27.7-119.3-21.4
						C267.9,69.2,224,97.2,191,142.8V30h407.1v424.6H132.8V297l60-5.2l19.9-2.1l25.7-2.9l25.8-2.7l31.4-3.4"/>
					<path class="st2" d="M310.3,279c0.8-2.1,1.4-4,2.1-5.9c1.6-4.3,3.2-8.7,4.7-13.1c0.3-1.2,1.3-2.1,2.6-2.2
						c6.5-1.6,13-3.1,19.4-5c6-1.9,11.2-5.9,14.4-11.3c1.5-2.3,2.7-4.7,3.8-7.1c0.3-0.9,1.2-1.6,2.2-1.7l18.8-3.3l30.4-5.4l1.5-0.2
						v42.9c0,1.3-0.3,1.8-1.7,1.9l12.8-1.4c0.2-1.6,0.3-2.9,0.5-4.1c1.1-9.4,2.2-18.7,3.4-28c0.5-4.5,1.1-9,1.7-13.5
						c0.1-0.7,0.5-1.4,1.1-1.8c2.8-1.7,5.7-3.4,8.7-4.8c3-1.3,5.3-3.7,6.4-6.7c2.4-5.6,3.9-11.5,4.4-17.5
						c-0.1-5.2-1.4-10.3-3.9-14.8c-3.1-6.4-7-12.3-11.5-17.8l-0.8-1c1.6-0.2,2.9-0.6,4.3-0.6c2.9-0.2,5.7-0.3,8.6-0.3
						c7.7,0,11.9-5.3,13.9-10.8c0.3-1-0.3-1-0.9-1.3l-19.1-7.4l-7.3-2.9c2.1-2.9,5-5.2,5.6-8.7c0.5-3.5-0.1-7.1-1.7-10.3l-7.7,14
						l-11-8.4c1.5-2.5,3-4.9,4.6-7.3c3.4-5.4,4.6-12,3.4-18.3c-0.3-2.1-2.3-2.7-3.6-4.1c-1.3,9.2-3.5,18.1-9.5,25.7l-4-4.7
						c-1.7-2.1-3.3-4.3-5-6.4c-0.5-0.5-0.6-1.3-0.2-1.9c3.1-6.3,5.1-13.1,6-20c0.2-2.7,0.2-5.5-0.2-8.2c-0.2-1.9-1.3-2.5-3-2.4v1.5
						c0,2.4-0.2,4.8,0,7.1c0.2,4.6-1.1,9.2-3.7,13c-0.9,1.4-1.8,2.8-2.8,4.4c-0.2-0.2-0.4-0.5-0.5-0.8c-2.4-5.7-4-11.6-5-17.6
						c-0.1-1.4-0.3-2.8-0.5-4.1c-0.2-0.8-0.7-1.4-1.4-1.9c-1-0.6-1.9,0-2.1,1.1c-0.3,3.1-0.7,6.2-0.9,9.2
						c-0.1,5.1,1.2,10.2,3.8,14.7c4.1,7.6,9.3,14.6,15.5,20.6c3,3.1,6.3,6,9.5,9c0.3,0.2,0.5,0.6,0.6,1l-22.4-7.3
						c-1.1,2.3,0,9.3,3.2,12.5c3.4,3.1,7.8,4.7,12.4,4.6v1.7c-0.1,9.7-0.4,19.3-0.4,29c0,3.1-1.4,6-3.8,7.9c-4.4,4.1-10,6.9-15.9,8
						c-10.9,1.8-21.6,4.1-32.4,6.2c-5.1,1-10.3,2.1-15.4,2.9c-5.7,1.3-11.4-2.2-12.7-7.9c0,0,0-0.1,0-0.1l0,0c0-0.3-0.1-0.5-0.1-0.8
						l-0.5-2.5c-2.5,1.9-4.1,4.6-4.5,7.7c-0.3,3.9,0.9,7.8,3.3,10.8c0.6,0.6,0.6,1.6,0,2.2c-2.1,2.9-3.9,5.8-5.8,8.7
						c-2.6,4.2-3.3,9.3-2,14.1c0.9,4.1,2.4,8,3.7,12.2c-0.2,0.1-0.4,0.2-0.7,0.3c-5.4,1.9-10.7,3.9-16.1,5.8
						c-0.8,0.2-1.5,0.9-1.6,1.8c-2.6,10.6-5.2,21.2-7.8,31.8c-0.1,0.8-0.8,1.4-1.6,1.3L310.3,279z"/>
					<path class="st2" d="M310.3,279c0.8,0,1.7,0,2.5-0.1l24.6-2.6l36.3-4c11.6-1.3,23.2-2.5,34.9-3.7"/>
					<path class="st2" d="M226.7,367.7h8.1c4.5,0,9-0.7,13.3-2.1c9.6-3.2,16.6-9.2,20-18.9c2.6-7.8,2.9-16.1,0.8-24
						c-1.6-7.4-6.5-13.7-13.3-17c-5-2.6-10.4-4-16-4.1c-7.8-0.3-15.7-0.2-23.5-0.3c-0.6,0-1.1,0.2-1.5,0.6c-0.6,0.6-0.6,1.6,0,2.2
						c0.5,0.6,0.9,1.3,1,2.1c0.5,1.8,0.9,3.8,1,5.7v45.3c0.1,2.7-0.6,5.3-2.1,7.6c-0.3,0.6-0.4,1.4-0.2,2.1c0.1,0.3,1,0.7,1.5,0.7
						C219.6,367.8,223.1,367.7,226.7,367.7z"/>
					<path class="st2" d="M405.4,338.5c0.7-0.4,1.4-0.8,2.1-1.3c5.9-4.1,9-11.1,8.2-18.2c0.1-6-3.2-11.5-8.4-14.3
						c-3.4-1.9-7.1-2.9-10.9-3c-7.9-0.2-15.9-0.2-23.8-0.3c-0.4,0-1.2,0.3-1.3,0.6c-0.3,0.7-0.3,1.4,0,2.1c1.5,2.1,2.2,4.6,2.2,7.1
						v46.6c0,2.6-0.7,5.1-2.1,7.3c-0.3,0.6-0.4,1.4-0.1,2.1c0.2,0.4,1,0.7,1.6,0.7h12.8c2.1,0,2.6-0.6,2.6-2.6v-23.4l0.4-0.3
						c0.7,0.3,1.4,0.7,2.1,1.2c0.6,0.7,1,1.4,1.3,2.2c3.4,7.2,6.8,14.4,10.2,21.6c0.3,0.8,1.1,1.4,1.9,1.3h13.4
						c1.8,0,2.5-1.3,1.7-2.9L405.4,338.5z"/>
					<path class="st2" d="M473.6,367.7h6.7c0.5,0,0.9-0.3,1.2-0.7c0.2-0.6,0.2-1.2,0-1.8c-1.2-2.1-2.4-4.3-3.4-6.5
						c-3.5-9.9-6.8-19.8-10.2-29.7c-3-8.7-5.9-17.5-8.9-26.2c-0.2-0.9-1-1.5-1.9-1.3h-11.5c-0.8-0.1-1.6,0.4-1.8,1.2
						c-5.9,17.5-11.8,34.9-17.7,52.4c-0.9,3.7-2.6,7.2-4.8,10.3c-0.8,0.9,0.1,2.4,1.4,2.4H436c1,0,1.2-0.5,1.5-1.2
						c1.1-3.5,2.2-6.9,3.3-10.3c0.1-0.9,1-1.6,1.9-1.4h17.9c0.9-0.1,1.7,0.5,1.9,1.3c1,3.4,2.2,6.8,3.3,10.2c0.1,0.9,1,1.6,1.9,1.5
						h0.1C469.7,367.7,471.7,367.7,473.6,367.7z"/>
					<path class="st2" d="M294.6,301.4h-17.1c-0.5,0-1.2,0.2-1.3,0.6c-0.3,0.7-0.3,1.4,0,2.1c1.5,2.2,2.3,4.8,2.3,7.5v45.8
						c0.1,2.8-0.8,5.5-2.4,7.7c-0.5,0.6-0.5,1.5,0,2.1c0.3,0.4,0.9,0.6,1.4,0.7h31.7c0.8,0.1,1.5-0.4,1.7-1.1
						c1.2-2.9,2.4-5.8,3.6-8.7c0.8-2.1,0.2-3-2.1-3h-17.9c-1.1,0-1.6-0.3-1.5-1.5v-12.3c0-1.2,0.4-1.5,1.5-1.5h14.2
						c2.1,0,2.5-0.5,2.5-2.6v-7.5c0-1.9-0.6-2.5-2.5-2.5h-14.4c-1.1,0-1.4-0.3-1.4-1.4v-10.2c0-1.2,0.4-1.5,1.6-1.5h16.8
						c1.7,0,2.4-0.6,2.4-2.3v-7.6c0-2.1-0.6-2.8-2.7-2.8L294.6,301.4z"/>
					<path class="st2" d="M520.5,368.8c4-0.5,8-1,12-1.7c0.6-0.2,1.1-0.6,1.3-1.1c1.5-3.4,3-6.9,4.4-10.4c0.2-0.6,0-1.2-0.3-1.6
						c-0.5-0.4-1.1-0.6-1.7-0.6c-6.6,1.6-13.4,2-20.1,1.3c-6.7-0.5-12.3-5.3-13.9-11.8c-1-3.8-1.3-7.8-0.9-11.8
						c0.6-9.1,7.8-16.3,16.9-16.8c5.9-0.3,11.8,0.7,17.3,3c2.1,0.8,3,0.1,3-2.1v-9.7c0.1-1-0.6-2-1.6-2.2h-0.1
						c-8.1-2.6-16.6-3.2-24.9-1.7c-10.2,1.5-19,8.1-23.2,17.6c-4,8.7-4.5,18.5-1.6,27.6c2.4,8.1,8.2,14.8,15.8,18.3
						C508.5,367.6,514.5,368.8,520.5,368.8z"/>
					<path class="st2" d="M348.6,340.6v-24.5c0-1.4,0.3-1.9,1.8-1.9c3.5,0.1,7,0,10.6,0c0.8,0.1,1.5-0.4,1.7-1.1
						c1.1-3,2.4-5.9,3.5-8.9c0.6-1.6-0.1-2.8-1.9-2.8h-43.9c-1.1-0.1-2.1,0.8-2.2,1.9c0,0.1,0,0.3,0,0.4v8.1c0,1.7,0.6,2.3,2.4,2.3
						h11.6c2.1,0,2.1,0,2.1,2.1v48.9c0,2.1,0.6,2.6,2.6,2.6h9.1c2.1,0,2.7-0.6,2.7-2.7C348.7,356.9,348.6,348.7,348.6,340.6z"/>
					<path class="st2" d="M307.2,375.2v13.1h3.1v-5c0.6,0.3,0.9,0.6,1,1c0.2,2.6,2.6,4.6,5.2,4.4c0.4,0,0.8-0.1,1.2-0.2h1.4
						c0.5-0.1,1-0.4,1.2-0.8c0.3-1.7,1.4-1.7,2.7-1.8c1.4,0,2.2,0.3,2.5,1.7c0.1,0.4,0.5,0.8,0.9,0.9c0.8,0.1,1.6,0.1,2.5,0
						c-1.4-4.1-2.9-8.1-4.1-12.1c-0.4-1.2-1.2-1-1.9-1s-1.4,0-1.7,1.1c-1,3.3-2.2,6.6-3.4,9.9c-0.2,0.6-0.5,1.2-1,2.1
						c-0.9-1.7-1.5-3.1-2.3-4.4c-0.5-0.6-0.4-1.4,0.1-1.9l0,0l0.1-0.1c1.9-1.9,1.4-5.5-1-6C311.6,375.5,309.4,375.2,307.2,375.2z"/>
					<path class="st2" d="M501.9,388.3h2.7v-11.1c0-2.1-0.2-2.2-2.1-1.9c-0.5,0.2-1,0.5-1.3,1c-1,1.5-1.8,3-2.8,4.7l-2.5-4.1
						c-0.5-1.4-2.1-2.1-3.5-1.6c0,0,0,0,0,0l0,0l-0.5,0.2v12.7h0.8c2.3,0,2.3,0,2.3-2.2v-4.6c0.7,0.6,1.2,1.3,1.7,2.1
						c1.2,1.9,2.1,2.1,3.3,0c0.5-0.8,1-1.5,1.5-2.3l0.3,0.1L501.9,388.3z"/>
					<path class="st2" d="M406,381h0.3c1,1.7,2,3.5,2.8,5.4c0.4,1.5,1.9,2.4,3.4,2.1c1,0,1.4-0.3,1.4-1.3v-10.5c0-1-0.3-1.3-1.3-1.3
						c-1,0-1.6,0.4-1.5,1.6v5.7h-0.4l-0.7-1.1c-0.9-1.7-1.8-3.4-2.7-5.1c-0.2-0.4-0.6-0.9-1-1c-1.1-0.1-2.3-0.1-3.4,0v12.9
						c3.1,0.5,3.1,0.5,3.1-2.6C406,384.1,406,382.5,406,381z"/>
					<path class="st2" d="M388.2,381.1h0.4c1,1.8,2.1,3.6,2.9,5.5c0.4,1.4,1.8,2.2,3.2,1.9c1.2,0,1.5-0.5,1.5-1.5v-10
						c0-1,0-1.6-1.4-1.6s-1.5,0.6-1.5,1.7v5.4c-0.4-0.2-0.8-0.5-1-1c-1-1.7-1.8-3.5-2.8-5.2c-0.2-0.4-0.6-0.9-1-1
						c-1.1-0.1-2.3-0.1-3.4,0v12.9h3V381.1z"/>
					<path class="st2" d="M374.8,381.1h0.3c1,1.8,2.1,3.5,2.8,5.4c0.4,1.5,2,2.4,3.5,2.1c1,0,1.2-0.4,1.2-1.3v-10.6
						c0-0.8-0.2-1.2-1.1-1.3c-1.3,0-1.8,0.3-1.7,1.7c0.1,1.8,0,3.7,0,5.5h-0.4c-1.1-2.1-2.2-4.1-3.3-6.2c-0.2-0.5-0.7-0.9-1.2-1
						c-1.1-0.1-2.1-0.1-3.2,0v12.9h3.1L374.8,381.1z"/>
					<path class="st2" d="M267.1,381.8c0,4.1,2.3,6.7,6.2,6.8c3.4,0.1,6.3-2.6,6.4-6V382c0.4-3.4-2.1-6.4-5.5-6.8h-0.7
						c-3.3-0.2-6.2,2.3-6.4,5.6C267.1,381.1,267.1,381.4,267.1,381.8L267.1,381.8z"/>
					<path class="st2" d="M470.8,388.3h3.7c5.3,0,8.2-3.5,6.8-9.3c-0.3-1.6-1.5-2.8-3-3.2c-2.5-0.5-5-0.6-7.4-0.8L470.8,388.3z"/>
					<path class="st2" d="M236.4,388.4c2,0,4-0.1,6-0.4c2.6-0.4,4.6-2.5,4.8-5.1c0.5-3.4-0.7-6.2-3.4-7.1c-2.4-0.6-4.9-0.8-7.4-0.5
						L236.4,388.4z"/>
					<path class="st2" d="M349.1,375.4v12.8h3.2v-4.8h0.4c0.5,1,1,1.9,1.4,2.9c1.1,2.3,1.7,2.6,4.4,1.9c-0.7-1.4-1.4-2.9-2.2-4.1
						c-0.5-0.6-0.4-1.4,0.1-1.9l0.2-0.1c1.1-1,1.4-2.6,1-4c-0.3-1.3-1.5-2.3-2.8-2.3C352.9,375.4,351,375.4,349.1,375.4z"/>
					<path class="st2" d="M425.8,378.2c0.7-2.1,0.2-2.9-1.9-3c-0.9-0.1-1.8-0.1-2.7,0c-2.9,0.2-5.2,2.3-5.6,5.2
						c-0.9,3.1,0.7,6.5,3.7,7.7c2.1,0.7,4.3,0.6,6.4-0.2c0.5-0.2,0.8-0.7,1-1.2c0.1-1.3,0.1-2.6,0-3.9c0-0.3-0.4-0.9-0.6-0.9
						c-0.9-0.1-1.7-0.1-2.6,0c0.2,0.8,0.3,1.7,0.4,2.5c0,1.5-0.3,1.8-1.7,1.7c-2.1-0.1-3.6-2-3.5-4c0,0,0,0,0,0v-0.3
						c-0.2-2.1,1.4-4,3.5-4.1c0,0,0,0,0.1,0h0.1C423.5,377.7,424.7,377.9,425.8,378.2z"/>
					<path class="st2" d="M290.9,388.2c-1.1-1.9-2.1-3.7-3.2-5.3c-0.8-0.8-0.8-2.2,0-3c1.1-1.3,1.9-2.8,2.9-4.3
						c-2.1-0.5-3.6-0.3-4.6,1.7c-0.4,0.8-1,1.6-1.5,2.3l-0.4-0.2v-1.4c0-3,0-3-3-2.6l0,0v12.9c0.5,0,0.9,0,1.4,0
						c1.3,0.2,1.8-0.3,1.7-1.7c-0.1-1.2-0.1-2.4,0-3.5h0.4l1.7,3.1C287.7,388.6,287.7,388.6,290.9,388.2z"/>
					<path class="st2" d="M359.3,375.3c0,1.5,0.2,2.8,0.2,4.1c0,1.9,0,3.8,0.2,5.6c0.1,1.9,1.7,3.4,3.7,3.4h2.1
						c2.3,0.3,4.3-1.4,4.6-3.6c0-0.3,0-0.5,0-0.8v-7c0-1,0-1.7-1.4-1.7c-1.4,0-1.5,0.5-1.5,1.7v6.8c0.1,1.2-0.7,2.3-1.9,2.5
						c0,0,0,0,0,0h-0.5c-1.4,0-2.2-0.9-2.2-2.8v-6.8c0-1-0.3-1.3-1.3-1.3L359.3,375.3z"/>
					<path class="st2" d="M469.5,388.3c-1.4-4.1-2.8-8.1-4.1-12c-0.1-0.7-0.8-1.2-1.5-1.1c0,0,0,0,0,0l0,0c-0.8,0-1.7-0.2-2.1,1
						c-1.3,4-2.7,7.9-4.1,11.9c2.3,0.5,3.1,0.4,3.4-1c0.3-1.4,1-1.5,2.1-1.4c1,0.1,2.6-0.5,2.8,1.3c0.2,1.1,0.8,1.4,1.9,1.3
						C468.4,388.3,468.9,388.3,469.5,388.3z"/>
					<path class="st2" d="M433.6,388.2c2.5,0.5,3,0.4,3.4-1.1c0.3-1,0.8-1.5,1.8-1.3s2.7-0.6,3.1,1.4c0,0.8,0.7,1.3,1.4,1.3h0.3
						c0.6,0,1.2,0,1.7,0c-1.4-4.1-2.8-7.9-4.1-11.7c-0.1-0.9-1-1.5-1.8-1.3c0,0,0,0,0,0c-1,0-1.7,0.2-2.1,1.3
						C436.3,380.4,434.9,384.2,433.6,388.2z"/>
					<path class="st2" d="M257.4,375.4v12.8h3.1v-4.1c0.8-0.1,1.7-0.3,2.5-0.5c2-0.6,3.3-2.6,3-4.7c-0.1-1.9-1.6-3.5-3.6-3.5
						C260.7,375.3,259.1,375.3,257.4,375.4z"/>
					<path class="st2" d="M256.2,377.6c-0.4-1-0.6-2.2-0.9-2.2c-2.3-0.1-4.6,0-6.7,0v13h5.2c1.7,0,2.1-0.4,2.1-2.4h-1.6
						c-0.5,0-1.1,0-1.6,0c-0.4,0-0.7-0.1-1-0.4c-0.5-0.8-0.3-1.9,0.5-2.5c0.3-0.2,0.7-0.3,1.1-0.3h0.6c0.8,0,1.4,0,1.4-1.1
						s-0.4-1.3-1.3-1.2h-1c-1.1,0.1-1.4-0.4-1.4-1.4c0-1,0.1-1.6,1.3-1.5C254,377.8,254.7,377.6,256.2,377.6z"/>
					<path class="st2" d="M456.8,386c-1.7,0-3.3-0.1-5-0.3c-1.7-0.5-2.7-2.3-2.3-4c0.2-1.1,0.6-2.2,1.4-3c1.7-1.8,3.8-0.8,5.8-0.3
						c0.6-2.4,0.3-2.9-1.8-3c-1-0.1-2-0.1-3,0c-2.4,0.2-4.4,1.8-5.1,4.1c-1.8,5.4,1.9,9.6,7.5,9.1
						C455.5,388.5,456.7,387.4,456.8,386z"/>
					<path class="st2" d="M490.7,377.6c-0.4-1-0.6-2.2-0.9-2.2c-2.3-0.1-4.6,0-6.6,0c0,2.3,0.1,4.5,0.1,6.6c0,2.1-0.1,4.1-0.2,6.5
						h4.8c2.1,0,2.1,0,2.5-2.4h-4.1v-3.2h2.2c0.7,0,1.3-0.2,1.3-1.1c0-0.9-0.3-1.2-1.2-1.2c-0.9,0-1.5,0-2.3,0v-2.9L490.7,377.6z"/>
					<path class="st2" d="M516.2,375.6c-2.6-0.6-2.9-0.5-3.8,1.6c-0.4,1-0.9,1.9-1.4,2.9c-0.3-0.2-0.3-0.2-0.4-0.3l-1.3-2.8
						c-0.8-1.9-1.7-2.2-3.9-1.4c0.2,0.2,0.3,0.5,0.4,0.7c1.4,3.5,4.1,6.6,3.5,10.7c-0.2,1.2,0.5,1.3,1.5,1.3c1,0,1.5-0.3,1.4-1.4
						c-0.2-2.3,0.4-4.5,1.6-6.5C514.8,378.9,515.5,377.2,516.2,375.6z"/>
					<path class="st2" d="M305.9,375.3h-7.6c-1.9,0-2.1,0.1-1.6,2.1c1,0.3,2.4,0.2,2.8,0.8s0.1,2.1,0.2,3.1v6.9
						c2.9,0.5,2.9,0.5,2.9-2.1V379c0-1,0.3-1.4,1.3-1.4C305.6,377.6,305.8,377.4,305.9,375.3z"/>
					<path class="st2" d="M342.5,386c-0.8,0-1.7,0-2.5,0c-1.3,0.1-1.7-0.4-1.6-1.7v-7.8c0-0.4-0.4-1.1-0.7-1.2
						c-0.8-0.1-1.6-0.1-2.5,0v13c1.5,0,3.1-0.1,4.7,0C341.5,388.5,342.3,387.9,342.5,386z"/>
					<path class="st2" d="M330.3,375.4v12.8h2.9v-10.1C333.2,374.7,333.2,375,330.3,375.4z"/>
					<path class="st2" d="M398.2,375.4v12.8h3v-10.3c0-2.8,0-2.8-2.8-2.5C398.3,375.3,398.1,375.4,398.2,375.4z"/>
					<path class="st1" d="M226.7,367.7H216c-0.5,0-1.4-0.3-1.5-0.7c-0.2-0.7-0.2-1.4,0.2-2.1c1.4-2.3,2.1-4.9,2.1-7.6v-45.3
						c-0.1-1.9-0.5-3.8-1-5.7c-0.2-0.8-0.5-1.5-1-2.1c-0.6-0.6-0.6-1.6,0-2.2c0.4-0.4,1-0.6,1.5-0.6c7.8,0,15.7,0,23.5,0.3
						c5.6,0.2,11.1,1.6,16,4.1c6.7,3.4,11.5,9.7,13.1,17c2.1,7.9,1.8,16.3-0.8,24c-3.4,9.7-10.3,15.7-19.9,18.9
						c-4.3,1.4-8.8,2.1-13.3,2.1h-8.1L226.7,367.7z M231.4,334.4v18.9c0,1.2,0.3,1.7,1.6,1.6h5c7.3-0.3,13.6-5.1,15.7-12.1
						c1.4-4.9,1.5-10,0.3-14.9c-1.1-5.7-5.1-10.3-10.6-12.2c-3.3-1-6.7-1.5-10.2-1.3c-1.4,0-1.7,0.5-1.7,1.7v18.6L231.4,334.4z"/>
					<path class="st1" d="M405.4,338.5l13.9,26.4c0.8,1.6,0.1,2.9-1.7,2.9h-13.4c-0.9,0.1-1.7-0.5-1.9-1.3
						c-3.4-7.2-6.8-14.4-10.2-21.6c-0.3-0.8-0.8-1.5-1.3-2.2c-0.6-0.5-1.3-0.9-2.1-1.2l-0.4,0.3v23.4c0,1.9-0.7,2.6-2.6,2.6h-12.8
						c-0.6,0-1.4-0.3-1.6-0.7c-0.2-0.7-0.2-1.4,0.1-2.1c1.3-2.2,2-4.7,2.1-7.3v-46.6c0-2.5-0.7-5-2.2-7.1c-0.3-0.7-0.3-1.4,0-2.1
						c0-0.3,0.8-0.6,1.3-0.6c7.9,0,15.9,0,23.8,0.3c3.8,0.1,7.6,1.1,10.9,3c5.2,2.9,8.5,8.4,8.4,14.3c0.8,7.1-2.4,14.1-8.2,18.2
						C406.7,337.7,405.9,338,405.4,338.5z M388.2,322.1v7c0,0.7,0,1.3,1,1.3c3.1,0.2,6.2-0.7,8.7-2.5c2.2-1.9,3.2-5,2.5-7.9
						c-0.3-2.7-2.3-4.9-4.9-5.4c-2-0.4-4-0.6-6-0.7c-1-0.1-1.3,0.3-1.3,1.3L388.2,322.1L388.2,322.1z"/>
					<path class="st1" d="M473.6,367.7h-6.2c-1,0.1-1.9-0.5-2.1-1.5c-1-3.4-2.2-6.8-3.3-10.2c-0.1-0.9-1-1.5-1.9-1.3h-17.7
						c-0.9-0.1-1.8,0.5-1.9,1.4c-1,3.5-2.2,6.9-3.3,10.3c-0.2,0.8-0.5,1.2-1.5,1.2h-13.2c-0.9,0-1.6-0.7-1.6-1.6
						c0-0.3,0.1-0.5,0.2-0.8c2.2-3.1,3.9-6.6,4.8-10.3c5.9-17.5,11.8-34.9,17.7-52.4c0.2-0.8,1-1.4,1.8-1.2h11.5
						c0.9-0.1,1.7,0.5,1.9,1.3c2.9,8.7,5.9,17.5,8.9,26.2c3.4,9.9,6.7,19.9,10.2,29.7c1,2.2,2.1,4.4,3.4,6.5c0.2,0.6,0.2,1.2,0,1.8
						c-0.3,0.4-0.7,0.7-1.2,0.7C478.1,367.8,475.9,367.7,473.6,367.7z M451.4,322.8l-6.5,19.8h13L451.4,322.8z"/>
					<path class="st1" d="M294.6,301.4h16.5c2.1,0,2.7,0.6,2.7,2.8v7.7c0,1.7-0.6,2.3-2.4,2.3h-16.8c-1.2,0-1.6,0.3-1.6,1.5v10.2
						c0,1.1,0.3,1.4,1.4,1.4h14.4c1.9,0,2.5,0.6,2.5,2.5v7.5c0,2.1-0.5,2.6-2.5,2.6h-14.2c-1.1,0-1.5,0.3-1.5,1.5v12.2
						c0,1.2,0.5,1.5,1.5,1.5h18c2.2,0,2.9,1,2.1,3c-1.2,2.9-2.5,5.8-3.6,8.7c-0.2,0.8-1,1.2-1.7,1.1h-31.7c-0.5,0-1-0.3-1.4-0.7
						c-0.5-0.6-0.5-1.5,0-2.1c1.6-2.2,2.4-4.9,2.4-7.7v-45.9c0-2.7-0.8-5.3-2.3-7.5c-0.3-0.7-0.3-1.4,0-2.1c0-0.3,0.8-0.6,1.3-0.6
						C283.2,301.4,288.9,301.4,294.6,301.4z"/>
					<path class="st1" d="M520.5,368.8c-6,0-12-1.2-17.5-3.6c-7.7-3.5-13.5-10.2-15.8-18.3c-3-9.1-2.4-18.9,1.6-27.6
						c4.2-9.5,12.9-16.1,23.2-17.6c8.3-1.5,16.9-0.9,24.9,1.7c1.2,0.3,1.7,0.8,1.7,2.2v9.7c0,2.2-1,2.9-3,2.1
						c-5.5-2.3-11.4-3.4-17.3-3c-9.1,0.5-16.4,7.7-16.9,16.8c-0.4,3.9-0.1,7.9,0.9,11.8c1.6,6.5,7.2,11.2,13.9,11.8
						c6.7,0.7,13.5,0.3,20.1-1.3c0.6-0.1,1.2,0.1,1.7,0.6c0.4,0.5,0.5,1.1,0.3,1.6c-1.4,3.5-2.8,7-4.4,10.4
						c-0.3,0.5-0.8,0.9-1.3,1.1C528.5,367.8,524.4,368.3,520.5,368.8z"/>
					<path class="st1" d="M348.7,340.6v24.5c0,2.1-0.6,2.7-2.7,2.7h-9.1c-1.9,0-2.6-0.6-2.6-2.6v-48.9c0-2.1,0-2.1-2.1-2.1h-11.6
						c-1.7,0-2.3-0.6-2.4-2.3c0-2.7,0-5.5,0-8.1c-0.1-1.1,0.6-2.2,1.8-2.3c0.2,0,0.3,0,0.5,0h43.9c1-0.2,1.9,0.5,2.1,1.5
						c0.1,0.4,0,0.9-0.3,1.3c-1.2,3-2.4,5.9-3.5,8.9c-0.2,0.8-1,1.2-1.7,1.1h-10.6c-1.5,0-1.9,0.5-1.8,1.9
						C348.7,324.2,348.6,332.4,348.7,340.6z"/>
					<path class="st1" d="M307.2,375.2c2.2,0,4.4,0.2,6.6,0.6c2.3,0.6,2.9,4.1,1,6c-0.6,0.4-0.8,1.3-0.4,1.9c0,0,0,0,0,0l0,0
						l0.1,0.1c0.8,1.3,1.5,2.7,2.3,4.4c0.4-0.7,0.7-1.4,1-2.1c1.2-3.3,2.3-6.6,3.4-9.9c0.3-1,0.9-1.1,1.7-1.1c0.8,0,1.6-0.2,1.9,1
						c1.3,4,2.7,7.9,4.1,12.1c-0.8,0.1-1.6,0.1-2.5,0c-0.4-0.1-0.8-0.5-0.9-0.9c-0.3-1.4-1.2-1.7-2.5-1.7s-2.5,0-2.7,1.8
						c0,0.3-0.8,0.7-1.2,0.8c-0.5,0.1-1,0.1-1.4,0c-2.5,0.9-5.2-0.5-6.1-3c-0.1-0.4-0.2-0.8-0.2-1.2c0-0.3-0.4-0.7-1-1v5h-3.1
						L307.2,375.2z M310.4,381c1.7-0.2,2.5-1,2.2-2.1c-0.1-0.9-1-1.5-1.9-1.4c0,0,0,0,0,0h-0.4L310.4,381z M321.6,383.4h2.5
						l-1.1-3.2l-0.4,0.1L321.6,383.4z"/>
					<path class="st1" d="M501.9,388.3v-6.9l-0.3-0.1c-0.5,0.8-1,1.5-1.5,2.3c-1.2,1.9-2.1,1.9-3.3,0c-0.4-0.8-1-1.5-1.7-2.1v4.7
						c0,2.3,0,2.3-2.3,2.2H492v-12.7c1.3-0.8,3-0.4,3.8,0.9c0.1,0.2,0.2,0.3,0.2,0.5l2.5,4.1c1-1.7,1.9-3.3,2.8-4.7
						c0.3-0.5,0.7-0.8,1.3-1c1.9-0.3,2.1,0,2.1,1.9v11L501.9,388.3z"/>
					<path class="st1" d="M406,381v4.5c0,3.1,0,3.1-3.1,2.6v-12.9c1.1-0.1,2.3-0.1,3.4,0c0.3,0,0.7,0.6,1,1c1,1.7,1.8,3.4,2.7,5.1
						c0.2,0.4,0.5,0.8,0.7,1.2h0.3v-5.7c0-1.2,0.3-1.6,1.5-1.6c1.2,0,1.4,0.3,1.3,1.3v10.4c0,1-0.4,1.2-1.4,1.3
						c-1.5,0.4-3-0.6-3.4-2.1c-0.8-1.9-1.9-3.6-2.8-5.4L406,381z"/>
					<path class="st1" d="M388.2,381.1v7.1h-3v-12.9c1.1-0.1,2.3-0.1,3.4,0c0.3,0,0.7,0.5,1,1c1,1.7,1.9,3.5,2.8,5.2
						c0.2,0.4,0.5,0.8,1,1v-5.6c0-1.1,0.2-1.7,1.5-1.7s1.4,0.6,1.4,1.6v10c0,1.1-0.3,1.5-1.5,1.5c-1.4,0.3-2.8-0.6-3.2-1.9
						c-0.8-1.9-1.9-3.6-2.9-5.5L388.2,381.1z"/>
					<path class="st1" d="M374.8,381.1v7.1h-3.1v-12.9c1.1-0.1,2.1-0.1,3.2,0c0.5,0.2,0.9,0.5,1.2,1c1.2,2.1,2.2,4.1,3.3,6.2h0.4
						V377c0-1.4,0.4-1.8,1.7-1.7c0.9,0,1.1,0.4,1.1,1.3v10.6c0,0.9-0.3,1.2-1.2,1.3c-1.5,0.3-3-0.6-3.5-2.1
						c-0.8-1.9-1.9-3.6-2.8-5.4L374.8,381.1z"/>
					<path class="st1" d="M267.1,381.8c-0.4-3.3,2-6.3,5.3-6.6c0.3,0,0.7,0,1,0c3.7-0.1,6.8,2.8,6.9,6.5c0.1,3.7-2.8,6.8-6.5,6.9
						h-0.6C269.3,388.5,267.1,385.9,267.1,381.8z M270,382c0.1,0.7,0.3,1.3,0.5,1.9c0.4,1.2,1.5,2,2.8,2.1c1.4,0,2.6-0.9,2.9-2.2
						c0.3-1,0.4-2.1,0.3-3.1c-0.2-1.6-1.4-2.9-3-3.1c-1.6,0.1-3,1.3-3.3,2.9C270.1,381,270,381.5,270,382L270,382z"/>
					<path class="st1" d="M470.8,388.3v-13.3c2.4,0.2,5,0.4,7.4,0.8c1.6,0.4,2.8,1.6,3,3.2c1.4,5.7-1.5,9.3-6.8,9.3H470.8z
						 M474.1,377.7c-0.1,0.2-0.1,0.3-0.2,0.5v6.5c0,1.2,0.5,1.4,1.5,1.2c2.1-0.4,3.5-2.4,3.1-4.5c0,0,0,0,0,0l0,0v-0.2
						c-0.1-2-1.8-3.6-3.8-3.5L474.1,377.7L474.1,377.7z"/>
					<path class="st1" d="M236.4,388.4v-13.1c2.5-0.3,5-0.1,7.4,0.5c2.7,1,3.9,3.6,3.4,7.1c-0.2,2.6-2.2,4.7-4.8,5.1
						C240.4,388.3,238.4,388.4,236.4,388.4z M244.1,381.7c0.2-2.1-1.4-3.9-3.5-4.1c-0.8,0-1.3,0-1.3,1v6.2c0,1,0.5,1.1,1.3,1
						c2.1-0.2,3.6-2.1,3.4-4.1l0,0L244.1,381.7z"/>
					<path class="st1" d="M349.1,375.4h5.6c1.4,0,2.6,1,2.8,2.3c0.5,1.4,0.1,3-1,4c-0.6,0.4-0.8,1.2-0.5,1.9l0,0l0.1,0.2
						c0.8,1.3,1.5,2.8,2.2,4.1c-2.7,0.8-3.3,0.5-4.4-1.9c-0.5-1-1-1.9-1.4-2.9h-0.4v4.9h-3.2L349.1,375.4z M352.4,377.7v3.5
						c1.3-0.3,2.4-0.7,2.2-2.1C354.4,377.8,353.5,377.5,352.4,377.7L352.4,377.7z"/>
					<path class="st1" d="M425.8,378.2c-1.1-0.3-2.3-0.5-3.5-0.6c-2.1,0.1-3.8,1.8-3.7,4c0,0,0,0,0,0v0.1c-0.2,2,1.2,3.9,3.3,4.1
						h0.2c1.5,0.1,1.8-0.2,1.7-1.7c-0.1-0.9-0.2-1.7-0.4-2.5c0.9-0.1,1.7-0.1,2.6,0c0.2,0,0.6,0.6,0.6,0.9c0.1,1.3,0.1,2.6,0,3.9
						c-0.1,0.5-0.5,1-1,1.2c-2,0.8-4.3,0.9-6.4,0.2c-3-1.2-4.6-4.6-3.7-7.7c0.4-2.8,2.7-5,5.6-5.2c0.9-0.1,1.8-0.1,2.7,0
						C426.1,375.4,426.5,376.1,425.8,378.2z"/>
					<path class="st1" d="M290.9,388.2c-3.2,0.4-3.2,0.4-4.6-2.1l-1.7-3.1h-0.4v3.5c0,1.2-0.4,1.8-1.7,1.7c-0.5,0-0.9,0-1.4,0v-13
						l0,0c3-0.3,3-0.3,3,2.6v1.4l0.4,0.2c0.6-0.8,1.1-1.6,1.6-2.4c0.9-2.1,2.4-2.2,4.6-1.7c-1,1.5-1.9,3-2.9,4.3
						c-0.8,0.8-0.8,2.2,0,3C288.9,384.5,289.8,386.3,290.9,388.2z"/>
					<path class="st1" d="M359.3,375.3h1.8c1,0,1.3,0.3,1.3,1.3v6.8c0,1.9,0.8,2.8,2.2,2.8c1.2,0.1,2.3-0.8,2.4-2c0-0.2,0-0.3,0-0.5
						v-6.8c0-1.1,0.2-1.6,1.5-1.7c1.3,0,1.5,0.7,1.4,1.7v7c0.2,2.3-1.5,4.3-3.8,4.5c-0.3,0-0.5,0-0.8,0h-1.8
						c-1.9,0.2-3.7-1.2-3.8-3.2c0,0,0,0,0,0l0,0V385c-0.2-1.9,0-3.7-0.2-5.6C359.5,378.1,359.4,376.8,359.3,375.3z"/>
					<path class="st1" d="M469.5,388.3c-0.6,0-1.1,0-1.7,0c-1,0.1-1.7-0.2-1.9-1.3c-0.3-1.9-1.7-1.2-2.8-1.3s-1.8,0-2.1,1.4
						s-1,1.6-3.4,1c1.4-4,2.8-7.9,4.1-11.9c0.4-1.2,1.3-1,2.1-1c0.7-0.2,1.4,0.3,1.6,1c0,0,0,0,0,0l0,0
						C466.7,380.3,468.1,384.2,469.5,388.3z M464.8,383.4l-1.1-3.2h-0.4l-1,3.2H464.8z"/>
					<path class="st1" d="M433.6,388.2c1.3-3.9,2.7-7.7,3.9-11.5c0.4-1.1,1-1.3,2.1-1.3c0.9-0.1,1.7,0.5,1.8,1.3c0,0,0,0,0,0
						c1.3,3.8,2.6,7.7,4.1,11.7c-0.6,0-1.2,0-1.7,0c-0.7,0.2-1.5-0.2-1.7-0.9c0-0.1,0-0.2-0.1-0.3c-0.3-2.1-1.9-1.2-3.1-1.4
						c-1.2-0.2-1.5,0.3-1.8,1.3C436.6,388.5,436.1,388.6,433.6,388.2z M439.6,380.3h-0.4l-1,3.4l2.6-0.1L439.6,380.3z"/>
					<path class="st1" d="M257.4,375.4c1.7-0.1,3.3-0.1,5,0c1.9,0,3.5,1.6,3.6,3.5c0.3,2.1-1,4.1-3,4.7c-0.8,0.2-1.6,0.4-2.5,0.5
						v4.1h-3.1V375.4z M260.6,377.7v3.8c1.7-0.2,2.5-1,2.3-2.2c-0.1-1-0.9-1.7-1.8-1.6C260.9,377.6,260.8,377.7,260.6,377.7
						L260.6,377.7z"/>
					<path class="st1" d="M256.2,377.6h-3.2c-0.9,0-1.3,0.5-1.3,1.5s0.3,1.6,1.4,1.4h1c0.9,0,1.3,0.2,1.3,1.2c0,1-0.6,1.2-1.4,1.1
						h-0.6c-1-0.1-1.8,0.7-1.9,1.6c0,0.4,0.1,0.8,0.3,1.1c0.1,0.2,0.6,0.4,1,0.4c0.5,0,1.1,0,1.6,0h1.6c0,2.1-0.5,2.4-2.1,2.4h-5.3
						v-13h6.7C255.6,375.4,255.8,376.7,256.2,377.6z"/>
					<path class="st1" d="M456.8,386c-0.1,1.4-1.2,2.5-2.6,2.5c-5.6,0.6-9.3-3.7-7.5-9.1c0.7-2.3,2.7-3.9,5.1-4.1c1-0.1,2-0.1,3,0
						c2.1,0.2,2.5,0.7,1.8,3c-1.9-0.5-4.1-1.5-5.8,0.3c-0.8,0.9-1.2,1.9-1.4,3c-0.4,1.7,0.6,3.5,2.3,4
						C453.5,385.9,455.1,386,456.8,386z"/>
					<path class="st1" d="M490.7,377.6h-4.3v2.9h2.3c0.7,0,1.2,0.3,1.2,1.2c0,0.9-0.4,1.2-1.3,1.1s-1.4,0-2.2,0v3.2h4.1
						c-0.4,2.3-0.5,2.4-2.5,2.4h-4.8c0-2.2,0.2-4.3,0.2-6.5s0-4.1-0.1-6.6h6.6C490.1,375.4,490.3,376.7,490.7,377.6z"/>
					<path class="st1" d="M516.2,375.6c-0.8,1.7-1.4,3.4-2.3,5c-1.2,1.9-1.8,4.2-1.6,6.5c0.1,1.1-0.3,1.4-1.4,1.4
						c-1.1,0-1.6-0.2-1.5-1.3c0.6-4.1-2.1-7.2-3.5-10.7c-0.1-0.3-0.3-0.5-0.4-0.7c2.1-0.8,3-0.5,3.9,1.4l1.3,2.8l0.4,0.3
						c0.5-1,1-2.1,1.4-2.9C513.4,375.1,513.6,375,516.2,375.6z"/>
					<path class="st1" d="M305.9,375.3c-0.1,2.1-0.3,2.3-2.1,2.3c-1,0-1.3,0.4-1.3,1.4v7.1c0,2.4,0,2.6-2.9,2.1v-6.8
						c0-1.1,0.3-2.4-0.2-3.1s-1.8-0.6-2.8-0.8c-0.4-1.9-0.3-2.1,1.6-2.1L305.9,375.3z"/>
					<path class="st1" d="M342.5,386c-0.2,1.9-1,2.5-2.6,2.4c-1.6-0.1-3.2,0-4.7,0v-13c0.8-0.1,1.6-0.1,2.5,0c0.3,0,0.7,0.7,0.7,1.2
						v7.8c0,1.3,0.3,1.8,1.6,1.7C340.8,386,341.7,385.9,342.5,386z"/>
					<path class="st1" d="M330.3,375.4c2.9-0.5,2.9-0.5,2.9,2.7v10.1h-2.9V375.4z"/>
					<path class="st1" d="M398.2,375.4h0.1c2.8-0.2,2.8-0.2,2.8,2.5v10.3h-3V375.4z"/>
					<path class="st2" d="M231.4,334.4v-18.6c0-1.3,0.3-1.8,1.7-1.7c3.4-0.1,6.9,0.3,10.1,1.3c5.5,1.9,9.5,6.6,10.6,12.2
						c1.2,4.9,1.1,10.1-0.3,14.9c-2.1,7-8.4,11.9-15.7,12.1H233c-1.2,0-1.6-0.4-1.6-1.6C231.4,347,231.4,340.7,231.4,334.4z"/>
					<path class="st2" d="M388.1,322.1V315c0-1,0.3-1.4,1.3-1.3c2,0.1,4,0.4,6,0.7c2.6,0.5,4.6,2.8,4.9,5.4c0.7,2.9-0.3,5.9-2.5,7.9
						c-2.5,1.9-5.6,2.8-8.7,2.5c-1,0-1-0.6-1-1.3C388.1,326.7,388.1,324.4,388.1,322.1z"/>
					<path class="st2" d="M451.4,322.8l6.6,19.8h-13L451.4,322.8z"/>
					<path class="st2" d="M310.4,381v-3.4c0.8-0.3,1.8,0.1,2.2,0.9c0,0.1,0.1,0.2,0.1,0.3C312.9,380.1,312.1,380.8,310.4,381z"/>
					<path class="st2" d="M321.6,383.4l1-3.1l0.4-0.1l1.1,3.2H321.6z"/>
					<path class="st2" d="M270,382c0-0.5,0-1,0.2-1.5c0.3-1.6,1.6-2.9,3.3-3c1.6,0.2,2.9,1.5,3,3.2c0.1,1,0,2.1-0.3,3.1
						c-0.3,1.3-1.5,2.3-2.9,2.2c-1.3,0-2.4-0.8-2.8-2.1C270.3,383.4,270.1,382.7,270,382z"/>
					<path class="st2" d="M474.1,377.7c2-0.4,3.9,0.9,4.3,2.9c0,0.2,0.1,0.3,0.1,0.5c0.5,2.1-0.7,4.2-2.8,4.7h-0.2
						c-1,0.2-1.5,0-1.5-1.2v-6.5C474,378,474,377.9,474.1,377.7z"/>
					<path class="st2" d="M244,381.7c0.2,2.1-1.3,3.9-3.4,4.1c0,0,0,0,0,0l0,0c-0.8,0-1.3,0-1.3-1v-6.2c0-1,0.5-1.1,1.3-1
						C242.7,377.8,244.2,379.6,244,381.7z"/>
					<path class="st2" d="M352.3,377.6c1.2-0.2,2.1,0,2.2,1.3c0.2,1.3-0.9,1.8-2.2,2.1V377.6z"/>
					<path class="st2" d="M464.8,383.4h-2.5l1-3.2h0.4L464.8,383.4z"/>
					<path class="st2" d="M439.6,380.3l1.1,3.2l-2.6,0.1l1-3.4L439.6,380.3z"/>
					<path class="st2" d="M260.6,377.7c0.9-0.3,1.9,0.2,2.2,1.1c0,0.1,0.1,0.3,0.1,0.4c0.2,1.3-0.6,2.1-2.3,2.2V377.7z"/>
				</g>
			</g>
		</g>
	</g>
</g>
</svg>
